Coordinates
nRows=116
nColumns=2
inDegrees=yes
endheader
time	ankle_angle_r	
3.72154	 -4.669189	
3.7931	 -4.531860	
3.86467	 -4.608154	
3.93624	 -4.623413	
4.00781	 -4.684448	
4.07938	 -4.592896	
4.15094	 -4.577637	
4.22251	 -4.714966	
4.29408	 -4.730225	
4.36565	 -4.776001	
4.43722	 -4.745483	
4.50878	 -4.852295	
4.58035	 -4.806519	
4.65192	 -4.577637	
4.72349	 -4.669189	
4.79506	 -4.653931	
4.86662	 -4.714966	
4.93819	 -4.531860	
5.00976	 -4.547119	
5.08133	 -4.669189	
5.1529	 -4.623413	
5.22446	 -4.608154	
5.29603	 -4.562378	
5.3676	 -4.669189	
5.43917	 -4.699707	
5.51074	 -4.608154	
5.5823	 -4.653931	
5.65387	 -4.653931	
5.72544	 -4.699707	
5.79701	 -4.653931	
5.86858	 -4.653931	
5.94014	 -4.806519	
6.01171	 -4.684448	
6.08328	 -4.791260	
6.15485	 -4.776001	
6.22642	 -4.882813	
6.29798	 -4.791260	
6.36955	 -4.684448	
6.44112	 -4.730225	
6.51269	 -4.760742	
6.58426	 -4.791260	
6.65582	 -4.638672	
6.72739	 -4.669189	
6.79896	 -4.852295	
6.87053	 -4.791260	
6.9421	 -4.760742	
7.01366	 -4.730225	
7.08523	 -4.882813	
7.1568	 -4.867554	
7.22837	 -4.714966	
7.29994	 -4.837036	
7.3715	 -4.669189	
7.44307	 -4.791260	
7.51464	 -4.684448	
7.58621	 -4.730225	
7.65778	 -4.882813	
7.72934	 -4.791260	
7.80091	 -4.852295	
7.87248	 -4.760742	
7.94405	 -4.776001	
8.01562	 -4.745483	
8.08718	 -4.745483	
8.15875	 -4.699707	
8.23032	 -4.669189	
8.30189	 -4.669189	
8.37346	 -4.577637	
8.44502	 -4.562378	
8.51659	 -4.653931	
8.58816	 -4.608154	
8.65973	 -4.623413	
8.7313	 -4.562378	
8.80286	 -4.669189	
8.87443	 -4.669189	
8.946	 -4.562378	
9.01757	 -4.638672	
9.08914	 -4.638672	
9.1607	 -4.638672	
9.23227	 -4.577637	
9.30384	 -4.623413	
9.37541	 -4.745483	
9.44698	 -4.653931	
9.51854	 -4.760742	
9.59011	 -4.684448	
9.66168	 -4.821777	
9.73325	 -4.714966	
9.80482	 -4.577637	
9.87638	 -4.623413	
9.94795	 -4.592896	
10.0195	 -4.653931	
10.0911	 -4.562378	
10.1627	 -4.531860	
10.2342	 -4.669189	
10.3058	 -4.623413	
10.3774	 -4.608154	
10.4489	 -4.577637	
10.5205	 -4.653931	
10.5921	 -4.730225	
10.6636	 -4.531860	
10.7352	 -4.638672	
10.8068	 -4.638672	
10.8783	 -4.699707	
10.9499	 -4.669189	
11.0215	 -4.714966	
11.093	 -4.760742	
11.1646	 -4.760742	
11.2362	 -4.745483	
11.3077	 -4.714966	
11.3793	 -4.730225	
11.4509	 -4.837036	
11.5224	 -4.776001	
11.594	 -4.821777	
11.6656	 -4.806519	
11.7372	 -4.898071	
11.8087	 -4.745483	
11.8803	 -4.745483	
11.9519	 -4.714966	
